<svg xmlns="http://www.w3.org/2000/svg" width="32" height="32" fill="none"><rect width="32" height="32" fill="#83b3d3" rx="4"/><path fill="#23a9e1" d="M4.3 8.2 15.9 22 27.6 8.3z"/><path fill="#fff" d="M13.1 13.3h6.3c-.5-.2-1.6-1.6-2.2-1.1 0 0-1.7-2-2.9-1-1 .8-1.4-.2-2.5.5-1.3.9.7 1.4 1.3 1.6m9.7-1.2h-3.5c1.4-1.6 2-1.4 3.5 0"/><path fill="#491213" d="M26.4 9.3v-.9h.8zM8.5 12.7l2.2-1.8A10 10 0 0 1 16 9.2c2 0 4 1 5.2 1.8q2.1 1.5 2.3 1.8l-1 1c-1.6.3-2.8 1.5-4.4 1.2-.8-.1-.8-.6-1-1q-.3-.4-.8-.5-.4-.3-1.3-.2c-.6.1-.6 1-1.4 1-.4 0-.4-.6-1-1.3q-2.4-2.5-3.8 0zm-3-4.3v.7l-.6-.7zm19.6 0h1.1v1.1L25.1 11zm-1.5 4.2V8.4h1.2v2.7zm-.2-3.8v3.6l-1.3-1zm-1.5-.1v2.5l-.6-.4-.8-.5zm-1.6 0v1.5l-1.1-.6zm.2-.3H22l-1.4 1.7zm1.6 0h1.3L22 11zm-3.2 0h1.4L19 9.6zm-.2.2v.9L17.6 9zm-1.5 0V9l-.8-.2zm-2.5 0 .8.3q-.5 0-.8.2zm-1.5 0 1.1.5-1.1.4zm1.3.4-1.2-.6h1.2zm1.3-.1-1-.5h1zm.2-.5h1L16 9zm1.4 0h1.1l-1.1.6zm-4.5 1.2-1.3-1.2H13v1.1zm-1.3-1 1 1-1 .5zm-1.6 0 1.3 1.7-1.3.9zm-1.5.2 1.3 2.5-1.3 1.2zM9.8 11 8.5 8.4h1.3zm1.6-1L10 8.5h1.4zm-4.6.7L5.6 9.3v-.9h1.2zM7 8.4h1.3v4.1L7 11zM4 8v5.3l12 14.5 12-14.3V8z"/><path fill="#23a9e1" d="m15 24.7 1-1.5 1 1.5-1 1.6z"/><path fill="#dc6243" d="M17.9 19.1q-1.6-1 0-1.8c.6-.2 1.8-1.2 2.3-.9zm-.8 1q-1.2-.2-2.3 0c.4 0 1.5.4.5.7.3.5 1 .4 1.3 0q-.3 0-.4-.3.7-.1.9-.5m.4-.6q-.5-.4-1 0c-.4-.8-2-.6-2.7-.7.4 1 3.5 1.2 3.7.7m-2.5-.8c-.6-.2-2.5-.2-1.2-.7.4-.1 2.4 0 1.2.7m.7-1.1c-.1-.4.2-1 .7-.5.4.2-.3.7-.7.5m-1 0c-.8.3-2-.3-.6-.5.8-.2 1.7.1.6.5m-1-2.3q-.3 1-.5 0c0-.8.6-.6 1.2-.9s.7-1.2 1.6-.7c.3.3.8 0 .9.5 0 0-1 2.4-.5 2.4-1.2 0-.7-1.4-.2-2.3-.5.2-1.1 1.6-.6 1.8-.3.4-1.2 1-1.7.6s-.2-.9-.2-1.4m-1.4 1c-2 0-.7-3 0-2.9.8.3.7 3 0 3m-2.3-3c-1 0-.5-.9.1-1 .7-.2 2 .4 2.4.8q-1.1.2-2.2.2c-.1-.8-.3-.5-.3 0"/><path fill="#f49774" d="M17 17.4c-1-1.1 1.6-1 2-1.4.3.1 2.6-2 3.1-1.8-.4.5-1.2 2-1.8 2q-.8-.2-1.3.2-1 .6-2 1"/><path fill="#f4b1a4" d="M17.3 16c-.5.4-1-.8 0-.7h1.9q-.7.9-1.9.8"/><path fill="#fff" d="m9.5 15.6.2.5-.1.4.5-.6L9 14.4l-.8.4q.1 0 .4 0l.5.2-1.5 1.2q-.1 0-.2 0l.2.3.5.6q.1 0 0-.3zM8.3 14h.2l-.6-.7q-.1-.2-.2 0l-1.5 1.4q-.1-.1-.3 0l.5.6.2.2v-.1L7 15C7.2 14.7 8 14 8.3 14m-2.1-.3q-.7.3-1-.4-.1-.7.5-1.2.6-.3 1 .2v.6q-.1.1 0 .3l.6-.8q-.4-.2-.6-.6-.3-.4-.8-.5c-.7-.1-1.3.6-1.4 1.2q0 .5.3 1l.6.6.7-.3m9.3 8.6-1.1-1.2-.1-.2v.3l-1.5 1.2-.4.1.8.8v-.2l.8-.7q.1-.1.3.1v.4q-.1 0 0 .3l.6-.7q-.1 0-.1 0h-.3l-.2-.4.4-.2q.3.2.4.5v.4q-.2.2 0 .2zM12 19.1q-.3 0-.7.3-.8.8-.2 1.7.8.9 1.9.3.7-.8.1-1.8-.5-.5-1-.5m.4.5q.6 0 .4.7-.2.5-.8.8-.8.2-.6-.6.3-.6.9-.9zm-1-1.7q.2.1.3 0l-.5-.6q0 .1 0 .2l-.8.2.3-.6h.3l-.7-.8q0-.2-.2-.2v.4c0 .1-.2 1-.5 1.1l-.6.5h-.3l.6.7.2.2v-.2c0-.1.6-.7.8-.7zm8.8 2.5q0 .2 0 .4 0 .6-.4.6l-.8-.6q.3-.4.7-.3 0 0 0-.1l-.7-.4v.3l-.2.3q-.4-.2-.2-.5.1-.3.5-.4.3.1.4 0l-.7-.4c0 .2-.8 1.1-1 1.3l-.2.2q.1 0 .2 0l1.6 1.3v.2h.1c.1 0 1-1.4 1.3-1.4l-.6-.9q0 .2 0 .4M19 22c-.5-.4-1.3.3-1.5.3q-.4 0-.3-.3t.6-.3h.3v-.1l-.6-.4q-.1.4-.5.6l-.4.7q0 .5.4.6t.8 0l.5-.4q.4 0 .5.3-.2.4-.6.6h-.5q0-.3-.3-.1l.9.6q0-.3.2-.4l.5-.5c.3-.3.4-1 0-1.2m6.4-10.3-.4.4-.2.4q-.2 0 0 .2c.1-.2 1.2 1.7 1.2 2-.2 0-1.7-1.2-1.7-1.3v-.2l-.3.2-.2.3h.2l.6.4h-.7q-.2 0-.3-.2l-.5.6-.3.4q0 0 .1 0l1.6 1.3.1.3.4-.5q0 0-.2 0l-1.4-1.1 2-.1.2.3q0 0 0 .2l.3-.4v-.1l.1-.1.4-.5H26l-.3-.5.2-.3c.2 0 .8-.3.9 0v.3l.8-1h-.1c-.2.2-2-.6-2.1-.7zm-.1 1 .8.4h-.2l-.2.2zm-2.4 2.8q-.6 0-1 .5-.7 1 0 1.7 1 .7 1.8-.1.7-1-.1-1.8-.3-.3-.7-.3m-.5.6.6.2c.3.2.8.6.6 1q-.7.3-1.1-.1c-.3-.2-.8-.7-.5-1zm-1.1 1.5q-.8 0-1.2.6l-.7.9h.3l1.5 1.3q0 0 0 .2l1.2-1.5A1 1 0 0 0 22 18q-.5-.4-.8-.4m-.4.6c.6.2 1.3.8.8 1.3l-.1.2-1.5-1.2q.3-.3.8-.3"/></svg>